<svg width="32" height="28" viewBox="0 0 32 28" fill="none" xmlns="http://www.w3.org/2000/svg">
    <path fill-rule="evenodd" clip-rule="evenodd"
        d="M7.3987 10.5246C7.56689 10.5246 7.70798 10.399 7.73169 10.2324C7.77608 9.92082 7.83215 9.61554 7.9095 9.32767L10.2526 0.490464C10.3085 0.279498 10.1494 0.0727539 9.93117 0.0727539H8.81224C7.45401 0.0727539 6.19052 0.744388 5.4341 1.86489L0.528181 9.04671C0.295936 9.38645 0.127944 9.75191 0.013284 10.1294C-0.0478945 10.3309 0.110388 10.5246 0.320956 10.5246H7.3987ZM18.0289 0.0727539C18.1798 0.0727539 18.3118 0.174397 18.3504 0.320294L20.9001 9.96772C20.9149 10.0227 20.9274 10.0804 20.9382 10.1396C20.9752 10.3408 20.813 10.5246 20.6085 10.5246H10.6134C10.4078 10.5246 10.245 10.3388 10.282 10.1365C10.2925 10.0788 10.3044 10.0227 10.3185 9.96938L12.8779 0.320012C12.9166 0.174247 13.0485 0.0727539 13.1992 0.0727539H18.0289ZM20.6339 13.0185C20.8379 13.0185 20.9948 13.2009 20.9507 13.4002C20.9095 13.5869 20.8606 13.7625 20.8045 13.9229L15.9226 27.7057C15.8181 28.0011 15.4005 28.0011 15.2959 27.7057L10.4157 13.9229C10.3586 13.7626 10.3094 13.5869 10.268 13.4004C10.2238 13.2011 10.3807 13.0185 10.5848 13.0185H20.6339ZM23.3123 9.33014C23.3883 9.61793 23.4442 9.92218 23.4884 10.2333C23.5122 10.3998 23.6533 10.5255 23.8214 10.5255H30.8993C31.1103 10.5255 31.2687 10.3308 31.2069 10.129C31.0915 9.75297 30.9237 9.38828 30.692 9.04919L25.8044 1.86902C25.0446 0.743537 23.7795 0.0735657 22.4212 0.0735657H21.2969C21.0788 0.0735657 20.9197 0.280126 20.9754 0.491043L23.3123 9.33014ZM7.7371 13.3118C7.80882 13.8265 7.90971 14.3194 8.06359 14.7558L11.7116 25.0554C11.8327 25.3974 11.3967 25.6585 11.1524 25.3904L0.882142 14.1181L0.878401 14.1132L0.874777 14.1086C0.695398 13.9099 0.541138 13.6963 0.409155 13.4732C0.286649 13.2661 0.446228 13.0185 0.686836 13.0185H7.40392C7.5725 13.0185 7.71384 13.1447 7.7371 13.3118ZM23.4811 13.3118C23.5044 13.1447 23.6458 13.0185 23.8142 13.0185H30.5243C30.7658 13.0185 30.9252 13.2679 30.8004 13.4747C30.6681 13.694 30.5141 13.9036 30.3366 14.0991L20.0686 25.3827C19.8243 25.6512 19.3881 25.39 19.5093 25.0479L23.1547 14.7558C23.3085 14.3207 23.4094 13.8268 23.4811 13.3118Z"
        fill="white" />
    <path fill-rule="evenodd" clip-rule="evenodd"
        d="M7.3987 10.5246C7.56689 10.5246 7.70798 10.399 7.73169 10.2324C7.77608 9.92082 7.83215 9.61554 7.9095 9.32767L10.2526 0.490464C10.3085 0.279498 10.1494 0.0727539 9.93117 0.0727539H8.81224C7.45401 0.0727539 6.19052 0.744388 5.4341 1.86489L0.528181 9.04671C0.295936 9.38645 0.127944 9.75191 0.013284 10.1294C-0.0478945 10.3309 0.110388 10.5246 0.320956 10.5246H7.3987ZM18.0289 0.0727539C18.1798 0.0727539 18.3118 0.174397 18.3504 0.320294L20.9001 9.96772C20.9149 10.0227 20.9274 10.0804 20.9382 10.1396C20.9752 10.3408 20.813 10.5246 20.6085 10.5246H10.6134C10.4078 10.5246 10.245 10.3388 10.282 10.1365C10.2925 10.0788 10.3044 10.0227 10.3185 9.96938L12.8779 0.320012C12.9166 0.174247 13.0485 0.0727539 13.1992 0.0727539H18.0289ZM20.6339 13.0185C20.8379 13.0185 20.9948 13.2009 20.9507 13.4002C20.9095 13.5869 20.8606 13.7625 20.8045 13.9229L15.9226 27.7057C15.8181 28.0011 15.4005 28.0011 15.2959 27.7057L10.4157 13.9229C10.3586 13.7626 10.3094 13.5869 10.268 13.4004C10.2238 13.2011 10.3807 13.0185 10.5848 13.0185H20.6339ZM23.3123 9.33014C23.3883 9.61793 23.4442 9.92218 23.4884 10.2333C23.5122 10.3998 23.6533 10.5255 23.8214 10.5255H30.8993C31.1103 10.5255 31.2687 10.3308 31.2069 10.129C31.0915 9.75297 30.9237 9.38828 30.692 9.04919L25.8044 1.86902C25.0446 0.743537 23.7795 0.0735657 22.4212 0.0735657H21.2969C21.0788 0.0735657 20.9197 0.280126 20.9754 0.491043L23.3123 9.33014ZM7.7371 13.3118C7.80882 13.8265 7.90971 14.3194 8.06359 14.7558L11.7116 25.0554C11.8327 25.3974 11.3967 25.6585 11.1524 25.3904L0.882142 14.1181L0.878401 14.1132L0.874777 14.1086C0.695398 13.9099 0.541138 13.6963 0.409155 13.4732C0.286649 13.2661 0.446228 13.0185 0.686836 13.0185H7.40392C7.5725 13.0185 7.71384 13.1447 7.7371 13.3118ZM23.4811 13.3118C23.5044 13.1447 23.6458 13.0185 23.8142 13.0185H30.5243C30.7658 13.0185 30.9252 13.2679 30.8004 13.4747C30.6681 13.694 30.5141 13.9036 30.3366 14.0991L20.0686 25.3827C19.8243 25.6512 19.3881 25.39 19.5093 25.0479L23.1547 14.7558C23.3085 14.3207 23.4094 13.8268 23.4811 13.3118Z"
        fill="url(#paint0_linear_3_289)" />
    <defs>
        <linearGradient id="paint0_linear_3_289" x1="7.24758" y1="27.9273" x2="28.1885" y2="1.1808"
            gradientUnits="userSpaceOnUse">
            <stop stop-color="#1B2791" />
            <stop offset="0.671875" stop-color="#C490FF" />
            <stop offset="1" stop-color="#1D0385" />
        </linearGradient>
    </defs>
</svg>