<svg width="24" height="25" viewBox="0 0 24 25" fill="none" xmlns="http://www.w3.org/2000/svg">
    <path fill-rule="evenodd" clip-rule="evenodd"
        d="M15.2126 12.1378C15.2391 12.0179 15.1447 11.9082 15.022 11.9082H8.97733C8.85454 11.9082 8.76014 12.018 8.78675 12.1379C8.81164 12.2501 8.84126 12.3558 8.87558 12.4522L11.8111 20.7428C11.874 20.9205 12.1252 20.9205 12.1881 20.7428L15.1246 12.4522C15.1584 12.3557 15.1878 12.2501 15.2126 12.1378Z"
        fill="black" />
    <path fill-rule="evenodd" clip-rule="evenodd"
        d="M13.6484 4.26999C13.6252 4.18223 13.5458 4.12109 13.455 4.12109H10.5499C10.4592 4.12109 10.3799 4.18214 10.3566 4.26982L8.81709 10.0741C8.80861 10.1062 8.8015 10.1399 8.79516 10.1746C8.77293 10.2963 8.87082 10.4081 8.99453 10.4081H15.0067C15.1297 10.4081 15.2273 10.2975 15.205 10.1765C15.1985 10.1409 15.191 10.1062 15.1821 10.0731L13.6484 4.26999Z"
        fill="black" />
    <path fill-rule="evenodd" clip-rule="evenodd"
        d="M16.6331 9.68958C16.6788 9.86269 16.7124 10.0457 16.739 10.2328C16.7533 10.333 16.8382 10.4086 16.9393 10.4086H21.1968C21.3237 10.4086 21.419 10.2915 21.3818 10.1701C21.3124 9.94392 21.2115 9.72455 21.0721 9.52058L18.1321 5.20158C17.6751 4.52458 16.9141 4.12158 16.0971 4.12158H15.4208C15.2896 4.12158 15.1939 4.24583 15.2274 4.3727L16.6331 9.68958Z"
        fill="black" />
    <path fill-rule="evenodd" clip-rule="evenodd"
        d="M7.46075 12.9532C7.36819 12.6907 7.3075 12.3942 7.26436 12.0846C7.25037 11.9841 7.16535 11.9082 7.06395 11.9082H3.0235C2.87877 11.9082 2.78278 12.0571 2.85647 12.1817C2.93586 12.3159 3.02865 12.4444 3.13655 12.5639L3.13873 12.5667L3.14098 12.5696L9.31872 19.3501C9.46567 19.5114 9.72793 19.3543 9.65508 19.1486L7.46075 12.9532Z"
        fill="black" />
    <path fill-rule="evenodd" clip-rule="evenodd"
        d="M7.0608 10.4081C7.16197 10.4081 7.24684 10.3325 7.2611 10.2323C7.2878 10.0449 7.32153 9.86125 7.36806 9.68809L8.77745 4.37235C8.81109 4.24545 8.71542 4.12109 8.58413 4.12109H7.91107C7.09407 4.12109 6.33406 4.52509 5.87906 5.19909L2.92806 9.51909C2.78836 9.72345 2.68731 9.94328 2.61834 10.1704C2.58154 10.2916 2.67675 10.4081 2.80341 10.4081H7.0608Z"
        fill="black" />
    <path fill-rule="evenodd" clip-rule="evenodd"
        d="M16.935 11.9082C16.8337 11.9082 16.7486 11.9841 16.7346 12.0846C16.6915 12.3944 16.6308 12.6915 16.5383 12.9532L14.3455 19.1441C14.2726 19.3499 14.535 19.507 14.6819 19.3455L20.8583 12.5582C20.9651 12.4406 21.0577 12.3145 21.1373 12.1826C21.2124 12.0582 21.1165 11.9082 20.9712 11.9082H16.935Z"
        fill="black" />
</svg>